    <svg xmlns="http://www.w3.org/2000/svg" version="1.1" xmlns:xlink="http://www.w3.org/1999/xlink" xmlns:svgjs="http://svgjs.com/svgjs" width="512" height="512" x="0" y="0" viewBox="0 0 512 512" style="enable-background:new 0 0 512 512" xml:space="preserve" class=""><g>
<g xmlns="http://www.w3.org/2000/svg">
	<g>
		<path d="M286.167,446.194l-4.443-31.092c-1.817-12.719-12.876-22.311-25.724-22.311c-12.848,0-23.907,9.592-25.724,22.311    l-4.442,31.092c-0.636,4.455,0.69,8.96,3.639,12.36c2.949,3.4,7.221,5.35,11.722,5.35h29.611c4.5,0,8.773-1.95,11.722-5.35    C285.477,455.154,286.803,450.649,286.167,446.194z M271.196,448.725c-0.154,0.178-0.326,0.178-0.39,0.178h-29.611    c-0.064,0-0.236,0-0.39-0.178c-0.154-0.178-0.13-0.347-0.121-0.411l4.442-31.092c0.768-5.377,5.443-9.432,10.875-9.432    s10.106,4.055,10.875,9.432l4.442,31.092C271.326,448.379,271.35,448.548,271.196,448.725z" fill="#ffffff" data-original="#000000" class=""></path>
	</g>
</g>
<g xmlns="http://www.w3.org/2000/svg">
	<g>
		<path d="M226.028,328.246c-1.784-3.738-6.259-5.322-9.999-3.539c-3.738,1.784-5.323,6.261-3.539,9.999    c7.39,15.488,4.197,34.052-7.945,46.194c-7.667,7.668-17.862,11.891-28.706,11.891s-21.039-4.223-28.707-11.891    c-15.828-15.828-15.828-41.583,0-57.412c12.148-12.148,30.719-15.339,46.212-7.937c3.737,1.787,8.214,0.203,10-3.534    c1.785-3.738,0.203-8.215-3.535-10c-21.217-10.136-46.65-5.771-63.285,10.865c-21.677,21.677-21.677,56.948,0,78.625    c10.501,10.501,24.462,16.284,39.313,16.284c14.851,0,28.812-5.783,39.313-16.284    C231.778,374.881,236.149,349.457,226.028,328.246z" fill="#ffffff" data-original="#000000" class=""></path>
	</g>
</g>
<g xmlns="http://www.w3.org/2000/svg">
	<g>
		<path d="M502.933,102.006c-14.224-10.926-42.47-10.713-86.299,0.667c-12.554-10.032-23.967-22.089-35.639-34.417    C349.229,34.699,316.38,0.001,256,0.001s-93.229,34.698-124.996,68.255c-11.671,12.328-23.085,24.385-35.639,34.417    c-43.829-11.38-72.074-11.593-86.299-0.667C1.178,108.066,0,115.71,0,119.727c0,4.385,1.416,8.825,4.066,12.65l59.8,96.386    c6.39,10.299,16.879,16.944,28.689,18.399c-8.222,20.623-12.394,42.419-12.394,64.951v96.194    c0,21.816,17.749,39.564,39.564,39.564h32.581v40.597c0,12.976,10.557,23.532,23.532,23.532H336.16    c12.976,0,23.532-10.557,23.532-23.532v-40.597h32.581c21.816,0,39.564-17.749,39.564-39.564v-96.194    c0-22.533-4.173-44.329-12.395-64.951c11.81-1.455,22.3-8.1,28.69-18.399l59.8-96.385c2.652-3.826,4.068-8.266,4.068-12.651    C512,115.71,510.822,108.066,502.933,102.006z M15,119.727c0-1.535,0.556-3.791,3.204-5.825c4.636-3.561,12.42-4.885,21.441-4.885    c12.374,0,27.071,2.493,39.145,5.127c-14.886,8.672-31.798,14.115-52.502,14.115C18.502,128.259,15,123.27,15,119.727z     M392.275,432.872h-72.148v-0.001c-4.142,0-7.5,3.358-7.5,7.5c0,4.142,3.358,7.5,7.5,7.5h24.566v40.597    c0,4.704-3.828,8.532-8.532,8.532h-8.532v-8.532c0-4.142-3.358-7.5-7.5-7.5c-4.142,0-7.5,3.358-7.5,7.5v8.532h-17.064v-8.532    c0-4.142-3.358-7.5-7.5-7.5c-4.142,0-7.5,3.358-7.5,7.5v8.532H263.5v-8.532c0-4.142-3.358-7.5-7.5-7.5c-4.142,0-7.5,3.358-7.5,7.5    v8.532h-17.065v-8.532c0-4.142-3.358-7.5-7.5-7.5c-4.142,0-7.5,3.358-7.5,7.5v8.532h-17.064v-8.532c0-4.142-3.358-7.5-7.5-7.5    c-4.142,0-7.5,3.358-7.5,7.5v8.532h-8.532c-4.705,0-8.532-3.828-8.532-8.532v-40.597h24.563c4.142,0,7.5-3.358,7.5-7.5    c0-4.142-3.358-7.5-7.5-7.5h-72.144c-13.545,0-24.564-11.02-24.564-24.564v-96.194c0-22.533,4.546-44.258,13.517-64.645H220.83    l71.078,71.078c-7.352,9.628-11.343,21.329-11.343,33.648c0,14.851,5.783,28.812,16.284,39.313    c10.5,10.501,24.462,16.284,39.313,16.284c12.319,0,24.02-3.991,33.648-11.342l33.695,33.694    C400.137,431.883,396.32,432.872,392.275,432.872z M416.838,408.308c0,4.045-0.989,7.861-2.728,11.229l-33.7-33.7    c12.455-16.392,14.971-38.665,5.94-57.591c-1.784-3.738-6.26-5.322-9.999-3.539c-3.738,1.784-5.323,6.261-3.539,9.999    c7.39,15.488,4.197,34.052-7.945,46.194c-7.668,7.668-17.863,11.891-28.707,11.891s-21.039-4.223-28.706-11.891    c-7.668-7.667-11.891-17.862-11.891-28.706s4.223-21.039,11.891-28.706c12.148-12.148,30.72-15.338,46.212-7.937    c3.737,1.787,8.215,0.203,10-3.535c1.785-3.737,0.203-8.215-3.535-10c-18.933-9.045-41.215-6.534-57.615,5.929l-60.476-60.477    h161.282v0.001c8.971,20.387,13.516,42.112,13.516,64.645V408.308z M473.315,159.723c-23.066-1.962-44.133-9.478-64.314-22.975    c-19.708-13.182-35.74-30.116-51.256-46.506c-7.467-7.888-14.52-15.337-21.68-22.171c-2.996-2.859-7.744-2.749-10.604,0.248    c-2.859,2.997-2.749,7.744,0.248,10.604c6.885,6.57,13.811,13.886,21.156,21.645c16.072,16.978,32.691,34.533,53.798,48.648    c20.153,13.479,41.142,21.586,63.88,24.646l-29.156,46.993c-4.512,7.272-12.315,11.614-20.873,11.614H97.486    c-8.558,0-16.361-4.342-20.873-11.614l-29.164-47.006c22.735-3.059,43.742-11.158,63.889-24.633    c21.106-14.116,37.726-31.671,53.798-48.648c29.44-31.098,50.71-53.567,90.864-53.567c18.37,0,33.987,4.755,49.147,14.964    c3.438,2.314,8.098,1.404,10.41-2.032c2.314-3.436,1.404-8.096-2.031-10.41C295.774,37.568,277.495,32.001,256,32.001    c-46.609,0-72.165,26.996-101.757,58.254c-15.504,16.376-31.536,33.311-51.244,46.493C82.83,150.236,61.752,157.77,38.69,159.73    l-10.245-16.513c53.028-0.864,83.748-33.272,113.453-64.65C172.845,45.878,202.075,15.001,256,15.001    s83.155,30.877,114.103,63.567c29.705,31.378,60.424,63.787,113.452,64.65L473.315,159.723z M485.712,128.259    c-20.728,0-37.65-5.453-52.548-14.142c42.318-9.363,56.381-3.48,60.632-0.215c2.648,2.034,3.204,4.291,3.204,5.825    C497,123.27,493.498,128.259,485.712,128.259z" fill="#ffffff" data-original="#000000" class=""></path>
	</g>
</g>
<g xmlns="http://www.w3.org/2000/svg">
</g>
<g xmlns="http://www.w3.org/2000/svg">
</g>
<g xmlns="http://www.w3.org/2000/svg">
</g>
<g xmlns="http://www.w3.org/2000/svg">
</g>
<g xmlns="http://www.w3.org/2000/svg">
</g>
<g xmlns="http://www.w3.org/2000/svg">
</g>
<g xmlns="http://www.w3.org/2000/svg">
</g>
<g xmlns="http://www.w3.org/2000/svg">
</g>
<g xmlns="http://www.w3.org/2000/svg">
</g>
<g xmlns="http://www.w3.org/2000/svg">
</g>
<g xmlns="http://www.w3.org/2000/svg">
</g>
<g xmlns="http://www.w3.org/2000/svg">
</g>
<g xmlns="http://www.w3.org/2000/svg">
</g>
<g xmlns="http://www.w3.org/2000/svg">
</g>
<g xmlns="http://www.w3.org/2000/svg">
</g>
</g></svg>
